<?xml version="1.0" encoding="UTF-8"?>
<svg width="272px" height="97px" viewBox="0 0 272 97" version="1.1" xmlns="http://www.w3.org/2000/svg" xmlns:xlink="http://www.w3.org/1999/xlink">
    <!-- Generator: Sketch 47.1 (45422) - http://www.bohemiancoding.com/sketch -->
    <title>Group</title>
    <desc>Created with Sketch.</desc>
    <defs></defs>
    <g id="Page-1" stroke="none" stroke-width="1" fill="none" fill-rule="evenodd">
        <g id="marvel-vs-dc" transform="translate(-60.000000, -80.000000)" fill-rule="nonzero" fill="#FFFFFF">
            <g id="Group" transform="translate(60.000000, 80.000000)">
                <path d="M177.094287,50.2688719 L168.857343,5.84585627e-15 L151.395023,5.84585627e-15 L153.536628,16.043257 C148.512093,2.13910093 138.545391,0.329092451 138.545391,0.329092451 L109.633719,0.329092451 L109.633719,87.3740458 L96.042762,0 L74.297231,0 L60.3767964,87.3740458 L60.3767964,0 L38.9607431,0 L29.9824746,40.6429177 L22.1573782,5.84585627e-15 L0,5.84585627e-15 L0,97 L17.8741675,96.6709075 L17.8741675,61.7048346 L25.6992639,97 L34.595163,97 L43.2439537,61.293469 L43.2439537,96.9177269 L76.1093586,96.9177269 L78.9922888,87.6208651 L92.1713985,87.6208651 L93.9835261,96.9177269 L128.578689,96.9177269 L128.578689,64.5021204 L140.686996,96.9177269 L157.819839,96.9177269 L145.299685,59.812553 C154.936909,51.9966073 156.749036,34.8837998 156.749036,34.8837998 L167.127585,96.9177269 L186.731511,96.9177269 L203.123028,3.45547074 L203.123028,96.9177269 L234.917631,96.9177269 L234.917631,77.336726 L220.667718,77.336726 L220.667718,58.8252757 L234.258675,58.8252757 L234.258675,38.5038168 L220.33824,38.5038168 L220.33824,18.5114504 L235,18.5114504 L235,0.329092451 L185.743077,0.329092451 L177.094287,50.2688719 Z M81.0515247,68.7803223 L85.3347354,39.1620017 L90.3592709,68.7803223 L81.0515247,68.7803223 Z M128.166842,46.3197625 L128.166842,17.4418999 C128.166842,17.4418999 137.062741,16.7014419 138.874869,31.0169635 C138.874869,31.0169635 139.945671,45.6615776 128.166842,46.3197625 Z" id="Shape"></path>
                <polygon id="Shape" points="258.260163 77.4852071 258.260163 0 242 0 242 97 272 97 272 77.4852071"></polygon>
            </g>
        </g>
    </g>
</svg>