<?xml version="1.0" encoding="UTF-8"?>
<svg width="500px" height="500px" viewBox="0 0 500 500" version="1.1" xmlns="http://www.w3.org/2000/svg" xmlns:xlink="http://www.w3.org/1999/xlink">
    <!-- Generator: Sketch 47.1 (45422) - http://www.bohemiancoding.com/sketch -->
    <title>path4182</title>
    <desc>Created with Sketch.</desc>
    <defs></defs>
    <g id="Page-1" stroke="none" stroke-width="1" fill="none" fill-rule="evenodd">
        <g id="dc" fill-rule="nonzero" fill="#FFFFFF">
            <path d="M249.999445,0 C111.9287,0 0,111.928576 0,250.000278 C0,388.07198 111.9287,500 249.999445,500 C388.0713,500 500,388.071424 500,250.000278 C500,111.929131 388.0713,0 249.999445,0 Z M18.3910281,250.000278 C18.3910281,223.142819 22.9058813,196.984695 31.8356034,172.056378 L55.8829738,188.759317 L55.8829738,376.431581 C48.4074699,364.97782 41.9645833,352.858052 36.5843091,340.143933 C24.5167418,311.601738 18.3910281,281.273712 18.3910281,250.000278 Z M413.772302,413.772953 C392.497278,435.046843 367.726131,451.749781 340.148755,463.415176 C311.606528,475.48884 281.277912,481.608437 250,481.608437 C218.727642,481.608437 188.398471,475.48884 159.857356,463.415176 C132.274979,451.749781 107.507721,435.046843 86.2288089,413.772953 C79.519297,407.057894 73.2641589,400.000111 67.4778368,392.612935 L195.472926,392.612935 L245.877863,356.121985 L245.877863,157.50588 L195.472926,119.972315 L58.2814895,119.972315 C66.4607728,107.941423 75.7976537,96.6654113 86.2288089,86.2292685 C107.507721,64.9498245 132.274979,48.2474412 159.857356,36.5853794 C188.398471,24.5117154 218.727642,18.3921186 250,18.3921186 C281.277912,18.3921186 311.607083,24.5117154 340.148755,36.5853794 C367.725576,48.2474412 392.497278,64.9498245 413.772302,86.2292685 C424.208456,96.6648558 433.539227,107.941423 441.719066,119.972315 L405.123647,119.972315 L396.902704,138.124472 L372.468727,119.972315 L315.622014,119.972315 L265.58091,157.50588 L265.58091,356.121985 L315.387051,392.612935 L432.528829,392.612935 C426.742507,400.000111 420.485702,407.057894 413.772302,413.772953 Z M106.986135,182.378094 L152.761793,182.378094 C165.5698,182.378094 175.948741,192.756468 175.948741,205.564462 L175.948741,308.203937 C175.948741,321.007487 165.5698,331.389749 152.761793,331.389749 L125.299398,331.389749 L125.299398,195.649904 L106.986135,182.378094 Z M450.226076,366.520912 L450.226076,295.749222 L385.443931,295.749222 L385.443931,331.389749 L357.461617,331.389749 C345.220743,331.389749 335.30062,321.470747 335.30062,309.230443 L335.30062,195.676011 L316.976248,182.378094 L385.443931,182.378094 L385.443931,221.281444 L444.825805,221.281444 L456.637856,145.256688 C459.056924,150.02594 461.320461,154.895178 463.41458,159.851623 C475.488257,188.393263 481.609527,218.721845 481.609527,249.999722 C481.609527,281.273156 475.488257,311.601182 463.41458,340.143378 C459.562957,349.25084 455.16253,358.050572 450.226076,366.520912 Z" id="path4182"></path>
        </g>
    </g>
</svg>